<svg id="epefgz6ZUro1" xmlns="http://www.w3.org/2000/svg" xmlns:xlink="http://www.w3.org/1999/xlink" viewBox="0 0 300 300" shape-rendering="geometricPrecision" text-rendering="geometricPrecision"><rect width="202.269438" height="220.535387" rx="0" ry="0" transform="translate(48.865281 79.464613)" stroke-width="0"/><rect width="33.777445" height="50.290862" rx="0" ry="0" transform="translate(64.490523 29.173751)" stroke-width="0"/><polygon points="0,-105.390544 100.232364,-32.567469 61.947008,85.262741 -61.947008,85.262741 -100.232364,-32.567469 0,-105.390544" transform="translate(150 112.202568)" stroke-width="0"/><line x1="0" y1="39.104195" x2="0" y2="-39.104195" transform="translate(98.267968 260.895805)" fill="none" stroke="#fff" stroke-width="3"/><line x1="-15.012197" y1="0" x2="15.012197" y2="0" transform="translate(113.280165 221.79161)" fill="none" stroke="#fff" stroke-width="3"/><line x1="0" y1="-39.104195" x2="0" y2="39.104195" transform="translate(128.292362 260.895805)" fill="none" stroke="#fff" stroke-width="3"/><ellipse rx="3.753048" ry="3.413985" transform="translate(117.033213 260.895805)" fill="#d2dbed" stroke-width="0"/><line x1="-19.703508" y1="0" x2="19.703508" y2="0" transform="translate(101.082753 102.138667)" fill="none" stroke="#fff" stroke-width="3"/><line x1="0" y1="-14.039269" x2="0" y2="14.039269" transform="translate(120.786261 116.177936)" fill="none" stroke="#fff" stroke-width="3"/><line x1="19.703508" y1="0" x2="-19.703508" y2="0" transform="translate(101.082753 130.217205)" fill="none" stroke="#fff" stroke-width="3"/><line x1="0" y1="14.039269" x2="0" y2="-14.039269" transform="translate(81.379246 116.177936)" fill="none" stroke="#fff" stroke-width="3"/><line x1="0" y1="-14.039269" x2="0" y2="14.039269" transform="translate(101.082753 116.177936)" fill="none" stroke="#fff" stroke-width="3"/><line x1="-19.703507" y1="0" x2="19.703508" y2="0" transform="translate(101.082754 116.177936)" fill="none" stroke="#fff" stroke-width="3"/><line x1="-19.703507" y1="0" x2="19.703508" y2="0" transform="translate(192.657159 116.177936)" fill="none" stroke="#fff" stroke-width="3"/><line x1="-19.703508" y1="0" x2="19.703508" y2="0" transform="translate(192.657158 102.138667)" fill="none" stroke="#fff" stroke-width="3"/><line x1="0" y1="-14.039269" x2="0" y2="14.039269" transform="translate(212.360666 116.177936)" fill="none" stroke="#fff" stroke-width="3"/><line x1="19.703508" y1="0" x2="-19.703508" y2="0" transform="translate(192.657158 130.217205)" fill="none" stroke="#fff" stroke-width="3"/><line x1="0" y1="14.039269" x2="0" y2="-14.039269" transform="translate(172.953651 116.177936)" fill="none" stroke="#fff" stroke-width="3"/><line x1="0" y1="-14.039269" x2="0" y2="14.039269" transform="translate(192.657158 116.177936)" fill="none" stroke="#fff" stroke-width="3"/><line x1="-19.703507" y1="0" x2="19.703508" y2="0" transform="translate(192.657158 235.830879)" fill="none" stroke="#fff" stroke-width="3"/><line x1="-19.703508" y1="0" x2="19.703508" y2="0" transform="translate(192.657157 221.791611)" fill="none" stroke="#fff" stroke-width="3"/><line x1="0" y1="-14.039269" x2="0" y2="14.039269" transform="translate(212.360665 235.830879)" fill="none" stroke="#fff" stroke-width="3"/><line x1="19.703508" y1="0" x2="-19.703508" y2="0" transform="translate(192.657157 249.870149)" fill="none" stroke="#fff" stroke-width="3"/><line x1="0" y1="14.039269" x2="0" y2="-14.039269" transform="translate(172.95365 235.830879)" fill="none" stroke="#fff" stroke-width="3"/><line x1="0" y1="-14.039269" x2="0" y2="14.039269" transform="translate(192.657157 235.830879)" fill="none" stroke="#fff" stroke-width="3"/></svg>
