<svg id="ecsQY3Lrve61" xmlns="http://www.w3.org/2000/svg" xmlns:xlink="http://www.w3.org/1999/xlink" viewBox="0 0 300 300" shape-rendering="geometricPrecision" text-rendering="geometricPrecision"><rect width="191.405518" height="166.635392" rx="0" ry="0" transform="translate(54.297241 66.682304)" stroke-width="0"/><line x1="0" y1="18.765247" x2="0" y2="-18.765247" transform="translate(100.459749 47.650119)" fill="none" stroke="#000" stroke-width="15"/><line x1="-49.540251" y1="0" x2="49.540252" y2="0" transform="translate(150 28.884872)" fill="none" stroke="#000" stroke-width="15"/><line x1="0" y1="-18.765247" x2="0" y2="18.765247" transform="translate(199.540252 47.650119)" fill="none" stroke="#000" stroke-width="15"/><line x1="-23.081254" y1="-33.026834" x2="23.081254" y2="33.026834" transform="translate(77.378495 99.442201)" fill="none" stroke="#fff" stroke-width="3"/><line x1="23.081253" y1="-32.893365" x2="-23.081254" y2="32.893365" transform="translate(222.621506 99.57567)" fill="none" stroke="#fff" stroke-width="3"/><line x1="-49.540251" y1="0" x2="49.540252" y2="0" transform="translate(150.000001 132.469035)" fill="none" stroke="#fff" stroke-width="3"/><line x1="-15" y1="0" x2="15" y2="0" transform="translate(450.303997 42.39585)" fill="none" stroke="#3f5787" stroke-width="3"/><line x1="-15" y1="0" x2="15" y2="0" transform="translate(493.088759 184.261116)" fill="none" stroke="#3f5787" stroke-width="3"/><rect width="30.775004" height="34.528054" rx="0" ry="0" transform="matrix(1 0 0 0.462797 134.612498 134.02052)" fill="#fff" stroke-width="0"/></svg>
